<svg width="53" height="53" viewBox="0 0 53 53" fill="none" xmlns="http://www.w3.org/2000/svg">
<path fill-rule="evenodd" clip-rule="evenodd" d="M44.1666 2.20825C47.8255 2.20825 50.7916 5.17437 50.7916 8.83325V44.1666C50.7916 47.8255 47.8255 50.7916 44.1666 50.7916H8.83325C5.17437 50.7916 2.20825 47.8255 2.20825 44.1666V8.83325C2.20825 5.17437 5.17437 2.20825 8.83325 2.20825H44.1666ZM44.1666 6.62492C45.3862 6.62492 46.3749 7.61362 46.3749 8.83325V44.1666C46.3749 45.3862 45.3862 46.3749 44.1666 46.3749H33.1249V30.9164H37.7098C38.6603 30.9164 39.5042 30.3082 39.8048 29.4064L40.7831 26.4714C41.1406 25.3989 40.3424 24.2914 39.2119 24.2914H33.1249V19.8747C33.1249 18.7706 34.2291 17.6664 35.3333 17.6664H39.7499C40.9695 17.6664 41.9583 16.6777 41.9583 15.4581V13.9432C41.9583 13.2298 41.5026 12.5903 40.8129 12.4083C37.9182 11.6443 35.3333 11.6443 35.3333 11.6443C29.8124 11.6443 26.4999 15.4581 26.4999 18.7706V24.2914H22.0833C20.8636 24.2914 19.8749 25.2801 19.8749 26.4997V28.7081C19.8749 29.9277 20.8636 30.9164 22.0833 30.9164H26.4999V46.3749H8.83325C7.61362 46.3749 6.62492 45.3862 6.62492 44.1666V8.83325C6.62492 7.61362 7.61362 6.62492 8.83325 6.62492H44.1666Z" fill="#0F0F0F"/>
</svg>
