<svg width="53" height="53" viewBox="0 0 53 53" fill="none" xmlns="http://www.w3.org/2000/svg">
<path fill-rule="evenodd" clip-rule="evenodd" d="M26.4999 39.7499C33.8177 39.7499 39.7499 33.8177 39.7499 26.4999C39.7499 19.1821 33.8177 13.2499 26.4999 13.2499C19.1821 13.2499 13.2499 19.1821 13.2499 26.4999C13.2499 33.8177 19.1821 39.7499 26.4999 39.7499ZM26.4999 35.3333C31.3784 35.3333 35.3333 31.3784 35.3333 26.4999C35.3333 21.6214 31.3784 17.6666 26.4999 17.6666C21.6214 17.6666 17.6666 21.6214 17.6666 26.4999C17.6666 31.3784 21.6214 35.3333 26.4999 35.3333Z" fill="#0F0F0F"/>
<path d="M39.7499 11.0416C38.5303 11.0416 37.5416 12.0303 37.5416 13.2499C37.5416 14.4695 38.5303 15.4583 39.7499 15.4583C40.9695 15.4583 41.9583 14.4695 41.9583 13.2499C41.9583 12.0303 40.9695 11.0416 39.7499 11.0416Z" fill="#0F0F0F"/>
<path fill-rule="evenodd" clip-rule="evenodd" d="M3.65242 9.44288C2.20825 12.2772 2.20825 15.9876 2.20825 23.4083V29.5916C2.20825 37.0123 2.20825 40.7226 3.65242 43.557C4.92274 46.0501 6.94973 48.0771 9.44288 49.3474C12.2772 50.7916 15.9876 50.7916 23.4083 50.7916H29.5916C37.0123 50.7916 40.7226 50.7916 43.557 49.3474C46.0501 48.0771 48.0771 46.0501 49.3474 43.557C50.7916 40.7226 50.7916 37.0123 50.7916 29.5916V23.4083C50.7916 15.9876 50.7916 12.2772 49.3474 9.44288C48.0771 6.94973 46.0501 4.92274 43.557 3.65242C40.7226 2.20825 37.0123 2.20825 29.5916 2.20825H23.4083C15.9876 2.20825 12.2772 2.20825 9.44288 3.65242C6.94973 4.92274 4.92274 6.94973 3.65242 9.44288ZM29.5916 6.62492H23.4083C19.625 6.62492 17.0532 6.62835 15.0653 6.79077C13.129 6.94898 12.1388 7.23573 11.448 7.58769C9.7859 8.43458 8.43458 9.7859 7.58769 11.448C7.23573 12.1388 6.94898 13.129 6.79077 15.0653C6.62835 17.0532 6.62492 19.625 6.62492 23.4083V29.5916C6.62492 33.3748 6.62835 35.9466 6.79077 37.9345C6.94898 39.8708 7.23573 40.8611 7.58769 41.5518C8.43458 43.2139 9.7859 44.5653 11.448 45.4121C12.1388 45.7641 13.129 46.0509 15.0653 46.2091C17.0532 46.3715 19.625 46.3749 23.4083 46.3749H29.5916C33.3748 46.3749 35.9466 46.3715 37.9345 46.2091C39.8708 46.0509 40.8611 45.7641 41.5518 45.4121C43.2139 44.5653 44.5653 43.2139 45.4121 41.5518C45.7641 40.8611 46.0509 39.8708 46.2091 37.9345C46.3715 35.9466 46.3749 33.3748 46.3749 29.5916V23.4083C46.3749 19.625 46.3715 17.0532 46.2091 15.0653C46.0509 13.129 45.7641 12.1388 45.4121 11.448C44.5653 9.7859 43.2139 8.43458 41.5518 7.58769C40.8611 7.23573 39.8708 6.94898 37.9345 6.79077C35.9466 6.62835 33.3748 6.62492 29.5916 6.62492Z" fill="#0F0F0F"/>
</svg>
