<svg width="53" height="53" viewBox="0 0 53 53" fill="none" xmlns="http://www.w3.org/2000/svg">
<path fill-rule="evenodd" clip-rule="evenodd" d="M43.687 8.65305C44.4567 8.47066 44.9934 8.29131 45.433 8.10295C46.0491 7.83897 46.56 7.52274 47.367 6.99015C48.0452 6.54256 48.9144 6.50358 49.6299 6.88867C50.3455 7.27376 50.7917 8.02069 50.7917 8.83327C50.7917 11.2203 50.4944 13.1768 49.8057 14.8986C49.2263 16.3468 48.4124 17.5231 47.4387 18.5937C47.0275 26.0206 44.8777 31.853 41.591 36.2718C38.1845 40.8516 33.652 43.7845 28.8742 45.4269C24.1104 47.0644 19.0771 47.4304 14.5678 46.8759C10.0881 46.3251 5.94723 44.842 3.06095 42.5972C2.27054 41.9824 1.9927 40.9127 2.38401 39.991C2.77532 39.0693 3.73783 38.5262 4.72911 38.6679C7.56895 39.0737 10.3026 38.428 12.5505 37.5048C12.108 37.264 11.6908 37.0035 11.303 36.735C9.25466 35.317 7.60205 33.392 6.85821 31.9043C6.5504 31.2887 6.54723 30.5648 6.84962 29.9465C7.00562 29.6276 7.23374 29.3555 7.51071 29.1484C4.52005 26.6801 3.31257 23.2662 3.31257 20.9791C3.31257 20.2991 3.62588 19.657 4.16189 19.2385C4.38727 19.0625 4.64144 18.9343 4.9094 18.8571C4.68561 18.2018 4.51194 17.5397 4.37956 16.8988C3.79267 14.057 3.84475 10.8494 4.48267 8.29769C4.70096 7.42448 5.42738 6.77113 6.31876 6.64629C7.21015 6.52144 8.0881 6.95008 8.5379 7.72972C10.9174 11.8542 15.3064 14.3753 19.3912 15.8686C21.3116 16.5707 23.0903 17.0182 24.4234 17.2932C24.7111 14.5978 25.4638 12.3749 26.6189 10.6093C28.1428 8.28 30.2683 6.90184 32.551 6.28733C36.4877 5.22755 40.856 6.43495 43.687 8.65305ZM23.7362 21.6606C22.2233 21.3568 20.1439 20.8464 17.8746 20.0168C14.8774 18.921 11.397 17.2124 8.48167 14.5658C8.53385 15.0528 8.60793 15.5357 8.70495 16.0055C9.19355 18.3714 10.1014 19.6964 10.9252 20.1082C11.9326 20.612 12.3995 21.7932 12.0087 22.8496C11.4796 24.2799 10.088 24.3973 8.8235 24.0812C9.84049 25.6059 11.6684 27.1261 14.7173 27.6343C15.7689 27.8096 16.5451 28.711 16.5623 29.777C16.5795 30.8429 15.8327 31.769 14.7873 31.978L12.8651 32.3625C13.1591 32.6181 13.4775 32.8687 13.817 33.1037C15.356 34.1692 16.9013 34.6287 18.2353 34.2952C19.2345 34.0454 20.2736 34.5194 20.7399 35.4377C21.2062 36.356 20.9758 37.4747 20.1846 38.1341C18.7627 39.3177 17.102 40.2673 15.4376 41.0557C14.6563 41.4258 13.783 41.791 12.8347 42.1126C13.5641 42.2682 14.323 42.3959 15.1068 42.4923C19.0168 42.9731 23.3689 42.649 27.4384 41.2501C31.4939 39.8561 35.2427 37.4062 38.0472 33.6359C40.8477 29.8707 42.802 24.6601 43.0641 17.585C43.0847 17.028 43.3152 16.4994 43.7094 16.1052C44.7024 15.1122 45.5229 13.9741 45.9266 12.6193C45.2201 12.8396 44.4247 13.0302 43.4772 13.2113C42.7585 13.3487 42.0184 13.1212 41.501 12.6038C39.8127 10.9155 36.4738 9.80521 33.6991 10.5522C32.3933 10.9037 31.2063 11.6647 30.3148 13.0273C29.4047 14.4185 28.7084 16.5858 28.7084 19.875C28.7084 20.4999 28.4437 21.0956 27.9798 21.5143C26.8801 22.507 25.0292 21.9202 23.7362 21.6606Z" fill="#0F0F0F"/>
</svg>
