<svg width="53" height="53" viewBox="0 0 53 53" fill="none" xmlns="http://www.w3.org/2000/svg">
<path fill-rule="evenodd" clip-rule="evenodd" d="M20.9706 15.7493C20.2872 15.3587 19.4474 15.3615 18.7666 15.7567C18.0857 16.1518 17.6667 16.8795 17.6667 17.6667V35.3333C17.6667 36.1205 18.0857 36.8482 18.7666 37.2433C19.4474 37.6385 20.2872 37.6413 20.9706 37.2507L36.429 28.4174C37.117 28.0242 37.5417 27.2925 37.5417 26.5C37.5417 25.7075 37.117 24.9758 36.429 24.5826L20.9706 15.7493ZM30.8823 26.5L22.0833 31.528V21.472L30.8823 26.5Z" fill="#0F0F0F"/>
<path fill-rule="evenodd" clip-rule="evenodd" d="M0 26.5C0 18.2193 0 14.079 2.10877 11.1765C2.78982 10.2392 3.61416 9.41482 4.55154 8.73377C7.45401 6.625 11.5943 6.625 19.875 6.625H33.125C41.4057 6.625 45.546 6.625 48.4485 8.73377C49.3858 9.41482 50.2102 10.2392 50.8912 11.1765C53 14.079 53 18.2193 53 26.5C53 34.7807 53 38.921 50.8912 41.8235C50.2102 42.7608 49.3858 43.5852 48.4485 44.2662C45.546 46.375 41.4057 46.375 33.125 46.375H19.875C11.5943 46.375 7.45401 46.375 4.55154 44.2662C3.61416 43.5852 2.78982 42.7608 2.10877 41.8235C0 38.921 0 34.7807 0 26.5ZM19.875 11.0417H33.125C37.3637 11.0417 40.188 11.0477 42.3278 11.2796C44.385 11.5024 45.2796 11.8907 45.8524 12.3069C46.4148 12.7156 46.9094 13.2102 47.3181 13.7726C47.7343 14.3454 48.1225 15.24 48.3454 17.2972C48.5773 19.437 48.5833 22.2613 48.5833 26.5C48.5833 30.7387 48.5773 33.563 48.3454 35.7028C48.1225 37.76 47.7343 38.6546 47.3181 39.2274C46.9094 39.7898 46.4148 40.2844 45.8524 40.6931C45.2796 41.1093 44.385 41.4976 42.3278 41.7204C40.188 41.9523 37.3637 41.9583 33.125 41.9583H19.875C15.6363 41.9583 12.812 41.9523 10.6722 41.7204C8.61499 41.4976 7.72044 41.1093 7.14759 40.6931C6.58516 40.2844 6.09056 39.7898 5.68193 39.2274C5.26573 38.6546 4.87745 37.76 4.65457 35.7028C4.42273 33.563 4.41667 30.7387 4.41667 26.5C4.41667 22.2613 4.42273 19.437 4.65457 17.2972C4.87745 15.24 5.26573 14.3454 5.68193 13.7726C6.09056 13.2102 6.58516 12.7156 7.14759 12.3069C7.72044 11.8907 8.61499 11.5024 10.6722 11.2796C12.812 11.0477 15.6363 11.0417 19.875 11.0417Z" fill="#0F0F0F"/>
</svg>
