<svg width="28" height="28" viewBox="0 0 28 28" fill="none" xmlns="http://www.w3.org/2000/svg">
<g clip-path="url(#clip0_22_142)">
<mask id="mask0_22_142" style="mask-type:luminance" maskUnits="userSpaceOnUse" x="0" y="0" width="28" height="28">
<path d="M0.5 27.5V0.5H27.5V27.5H0.5Z" fill="white" stroke="white"/>
</mask>
<g mask="url(#mask0_22_142)">
<path fill-rule="evenodd" clip-rule="evenodd" d="M5.24363 1.66669C3.26272 1.66669 1.66675 3.26265 1.66675 5.24357V10.2304C1.66675 10.5065 1.44289 10.7304 1.16675 10.7304C0.890606 10.7304 0.666748 10.5065 0.666748 10.2304V5.24357C0.666748 2.71037 2.71043 0.666687 5.24363 0.666687H10.2304C10.5066 0.666687 10.7304 0.890545 10.7304 1.16669C10.7304 1.44283 10.5066 1.66669 10.2304 1.66669H5.24363Z" fill="black" stroke="black" stroke-linecap="round" stroke-linejoin="round"/>
<path fill-rule="evenodd" clip-rule="evenodd" d="M1.16675 17.2697C1.44289 17.2697 1.66675 17.4935 1.66675 17.7697V22.7565C1.66675 24.7375 3.26271 26.3334 5.24363 26.3334H10.2304C10.5066 26.3334 10.7304 26.5572 10.7304 26.8334C10.7304 27.1095 10.5066 27.3334 10.2304 27.3334H5.24363C2.71043 27.3334 0.666748 25.2897 0.666748 22.7565V17.7697C0.666748 17.4935 0.890606 17.2697 1.16675 17.2697Z" fill="black" stroke="black" stroke-linecap="round" stroke-linejoin="round"/>
<path fill-rule="evenodd" clip-rule="evenodd" d="M17.2695 1.16669C17.2695 0.890545 17.4934 0.666687 17.7695 0.666687H22.7562C25.2895 0.666687 27.3331 2.71037 27.3331 5.24357V10.2304C27.3331 10.5065 27.1093 10.7304 26.8331 10.7304C26.557 10.7304 26.3331 10.5065 26.3331 10.2304V5.24357C26.3331 3.26265 24.7372 1.66669 22.7562 1.66669H17.7695C17.4934 1.66669 17.2695 1.44283 17.2695 1.16669Z" fill="black" stroke="black" stroke-linecap="round" stroke-linejoin="round"/>
<path fill-rule="evenodd" clip-rule="evenodd" d="M26.8331 17.2697C27.1093 17.2697 27.3331 17.4935 27.3331 17.7697V22.7565C27.3331 25.2897 25.2895 27.3334 22.7562 27.3334H17.7695C17.4934 27.3334 17.2695 27.1095 17.2695 26.8334C17.2695 26.5572 17.4934 26.3334 17.7695 26.3334H22.7562C24.7372 26.3334 26.3331 24.7375 26.3331 22.7565V17.7697C26.3331 17.4935 26.557 17.2697 26.8331 17.2697Z" fill="black" stroke="black" stroke-linecap="round" stroke-linejoin="round"/>
<path fill-rule="evenodd" clip-rule="evenodd" d="M14 13.6181C14.2761 13.6181 14.5 13.842 14.5 14.1181V22.3664C14.5 22.6426 14.2761 22.8664 14 22.8664C13.7239 22.8664 13.5 22.6426 13.5 22.3664V14.1181C13.5 13.842 13.7239 13.6181 14 13.6181Z" fill="black" stroke="black" stroke-linecap="round" stroke-linejoin="round"/>
<path fill-rule="evenodd" clip-rule="evenodd" d="M6.7136 10.2402C6.85172 10.0011 7.15753 9.91924 7.39665 10.0574L14.0004 13.8716L20.6043 10.0573C20.8434 9.91924 21.1492 10.0011 21.2873 10.2402C21.4254 10.4794 21.3435 10.7852 21.1044 10.9233L14.2505 14.882C14.0957 14.9714 13.9051 14.9714 13.7503 14.882L6.89649 10.9233C6.65737 10.7852 6.57549 10.4794 6.7136 10.2402Z" fill="black" stroke="black" stroke-linecap="round" stroke-linejoin="round"/>
</g>
<path fill-rule="evenodd" clip-rule="evenodd" d="M14.4999 6.00004C14.6401 6.23794 14.5609 6.54446 14.323 6.68465L7.43659 10.7428C7.19868 10.883 6.89217 10.8038 6.75197 10.5659C6.61177 10.328 6.69098 10.0215 6.92889 9.88128L13.8153 5.82312C14.0532 5.68292 14.3597 5.76213 14.4999 6.00004Z" fill="black" stroke="black"/>
<path fill-rule="evenodd" clip-rule="evenodd" d="M13.9999 6.00004C13.8527 6.23369 13.9228 6.54242 14.1565 6.6896L20.5586 10.7225C20.7922 10.8696 21.1009 10.7995 21.2481 10.5659C21.3953 10.3322 21.3252 10.0235 21.0915 9.87634L14.6895 5.84348C14.4558 5.6963 14.1471 5.76639 13.9999 6.00004Z" fill="black" stroke="black"/>
<path fill-rule="evenodd" clip-rule="evenodd" d="M6.49994 18.5C6.37163 18.7445 6.46583 19.0468 6.71035 19.1751L13.5729 22.7763C13.8174 22.9046 14.1197 22.8104 14.248 22.5659C14.3763 22.3214 14.2821 22.0191 14.0376 21.8908L7.17502 18.2896C6.9305 18.1613 6.62826 18.2555 6.49994 18.5Z" fill="black" stroke="black"/>
<path fill-rule="evenodd" clip-rule="evenodd" d="M21.5001 18.5C21.6284 18.7445 21.5342 19.0468 21.2896 19.1751L14.4271 22.7763C14.1826 22.9046 13.8803 22.8104 13.752 22.5659C13.6237 22.3214 13.7179 22.0191 13.9624 21.8908L20.825 18.2896C21.0695 18.1613 21.3717 18.2555 21.5001 18.5Z" fill="black" stroke="black"/>
<path fill-rule="evenodd" clip-rule="evenodd" d="M21.5 19C21.2239 19 21 18.7761 21 18.5V10.5C21 10.2239 21.2239 10 21.5 10C21.7761 10 22 10.2239 22 10.5V18.5C22 18.7761 21.7761 19 21.5 19Z" fill="black" stroke="black"/>
<path fill-rule="evenodd" clip-rule="evenodd" d="M6.5 19C6.22386 19 6 18.7761 6 18.5L6 10.5C6 10.2239 6.22386 10 6.5 10C6.77614 10 7 10.2239 7 10.5L7 18.5C7 18.7761 6.77614 19 6.5 19Z" fill="black" stroke="black"/>
</g>
<defs>
<clipPath id="clip0_22_142">
<rect width="28" height="28" fill="white"/>
</clipPath>
</defs>
</svg>
