<svg width="28" height="28" viewBox="0 0 28 28" fill="none" xmlns="http://www.w3.org/2000/svg">
<path d="M6.65836 18.8253C6.20275 19.2809 6.20275 20.0196 6.65836 20.4752L12.366 26.1772C13.2773 27.0877 14.7541 27.0873 15.665 26.1764L21.3704 20.471C21.826 20.0154 21.826 19.2767 21.3704 18.8211C20.9148 18.3655 20.1761 18.3655 19.7205 18.8211L14.8372 23.7043C14.3816 24.1599 13.6429 24.1599 13.1873 23.7043L8.30828 18.8253C7.85266 18.3697 7.11397 18.3697 6.65836 18.8253Z" fill="#0F0F0F"/>
<path d="M21.3704 9.20129C21.826 8.74568 21.826 8.00699 21.3704 7.55138L15.6628 1.84936C14.7515 0.938896 13.2747 0.939257 12.3638 1.85017L6.65836 7.55559C6.20275 8.0112 6.20275 8.74989 6.65836 9.2055C7.11397 9.66112 7.85266 9.66112 8.30828 9.2055L13.1915 4.32225C13.6471 3.86664 14.3858 3.86664 14.8414 4.32225L19.7205 9.20129C20.1761 9.65691 20.9148 9.65691 21.3704 9.20129Z" fill="#0F0F0F"/>
</svg>
