<svg width="28" height="26" viewBox="0 0 28 26" fill="none" xmlns="http://www.w3.org/2000/svg">
<mask id="mask0_8_189" style="mask-type:luminance" maskUnits="userSpaceOnUse" x="0" y="0" width="28" height="26">
<path d="M28 0H0V25.3983H28V0Z" fill="white"/>
</mask>
<g mask="url(#mask0_8_189)">
<path d="M26.8334 12.6992C26.8334 14.1874 25.1028 15.3495 24.5185 16.6542C23.9341 17.959 24.1813 19.9161 23.08 20.9354C21.9788 21.9549 19.8437 21.6898 18.3603 22.2403C16.8768 22.7907 15.6408 24.3401 14.0001 24.3401C12.3594 24.3401 11.0783 22.7703 9.6399 22.2403C8.20148 21.7102 6.04387 21.9344 4.9201 20.9354C3.79634 19.9365 4.08852 17.9998 3.48169 16.6542C2.87486 15.3087 1.16675 14.1874 1.16675 12.6992C1.16675 11.211 2.89733 10.0489 3.48169 8.74416C4.06604 7.43939 3.81881 5.48227 4.9201 4.46292C6.02139 3.44358 8.15653 3.70861 9.6399 3.15816C11.1233 2.60772 12.3594 1.05832 14.0001 1.05832C15.6408 1.05832 16.9219 2.6281 18.3603 3.15816C19.7986 3.68822 21.9563 3.46396 23.08 4.46292C24.2039 5.46187 23.9116 7.39862 24.5185 8.74416C25.1253 10.0897 26.8334 11.211 26.8334 12.6992Z" fill="white" fill-opacity="0.41" stroke="black" stroke-width="2" stroke-linecap="round" stroke-linejoin="round"/>
<path d="M10.3594 12.8011L12.7193 14.9213L17.6414 10.4566" fill="white" fill-opacity="0.41"/>
<path d="M10.3594 12.8011L12.7193 14.9213L17.6414 10.4566" stroke="black" stroke-width="2" stroke-linecap="round" stroke-linejoin="round"/>
</g>
</svg>
