<svg width="28" height="28" viewBox="0 0 28 28" fill="none" xmlns="http://www.w3.org/2000/svg">
<path fill-rule="evenodd" clip-rule="evenodd" d="M26.3078 5.06207C25.9417 2.38835 22.9545 1.53144 21.0015 2.93052C19.4552 4.03824 17.4654 5.36935 15.5046 6.41861C13.4888 7.49733 11.7024 8.16658 10.5001 8.16658H4.66675C2.73375 8.16658 1.16675 9.73359 1.16675 11.6666V15.1666C1.16675 17.014 2.59799 18.527 4.41212 18.6575L3.93918 21.0221C3.58507 22.7927 4.636 24.5421 6.3655 25.0609L7.78051 25.4855C9.71721 26.0665 11.7419 24.8903 12.1966 22.9201L13.0404 19.2634C13.7994 19.556 14.6304 19.9468 15.5046 20.4145C17.4654 21.4638 19.4552 22.7949 21.0015 23.9026C22.9545 25.3017 25.9417 24.4448 26.3078 21.7711C26.5818 19.77 26.8334 16.966 26.8334 13.4166C26.8334 9.86713 26.5818 7.06312 26.3078 5.06207ZM22.3603 4.82736C22.7257 4.56564 23.129 4.54121 23.4335 4.65492C23.7226 4.76284 23.9439 4.9975 23.996 5.3786C24.2563 7.27945 24.5001 9.97764 24.5001 13.4166C24.5001 16.8555 24.2563 19.5537 23.996 21.4546C23.9439 21.8357 23.7226 22.0703 23.4335 22.1782C23.129 22.292 22.7257 22.2675 22.3603 22.0058C20.7754 20.8704 18.6931 19.4744 16.6055 18.3573C14.5729 17.2696 12.3345 16.3332 10.5001 16.3332H4.66675C4.02242 16.3332 3.50008 15.8109 3.50008 15.1666V11.6666C3.50008 11.0222 4.02242 10.4999 4.66675 10.4999H10.5001C12.3345 10.4999 14.5729 9.56357 16.6055 8.47591C18.6931 7.3588 20.7754 5.96276 22.3603 4.82736ZM10.7809 18.6778C10.6841 18.6704 10.5904 18.6666 10.5001 18.6666H6.78984L6.2272 21.4798C6.10917 22.0699 6.45948 22.6531 7.03598 22.826L8.45098 23.2505C9.09655 23.4442 9.77146 23.0521 9.92301 22.3954L10.7809 18.6778Z" fill="#0F0F0F"/>
</svg>
