<svg width="26" height="27" viewBox="0 0 26 27" fill="none" xmlns="http://www.w3.org/2000/svg">
<path fill-rule="evenodd" clip-rule="evenodd" d="M6.16658 0.166656C5.52225 0.166656 4.99992 0.688991 4.99992 1.33332V2.49999H3.83325C1.90026 2.49999 0.333252 4.06699 0.333252 5.99999V22.3333C0.333252 24.2663 1.90025 25.8333 3.83325 25.8333H13.2844C12.6009 25.1635 12.0346 24.3745 11.6192 23.5H3.83325C3.18892 23.5 2.66659 22.9777 2.66659 22.3333V11.8333H21.3333V12.1715C22.1761 12.4224 22.9619 12.8056 23.6666 13.2971V5.99999C23.6666 4.06699 22.0996 2.49999 20.1666 2.49999H18.9999V1.33332C18.9999 0.688991 18.4776 0.166656 17.8333 0.166656C17.1889 0.166656 16.6666 0.688991 16.6666 1.33332V2.49999H7.33325V1.33332C7.33325 0.688991 6.81092 0.166656 6.16658 0.166656ZM16.6666 5.99999V4.83332H7.33325V5.99999C7.33325 6.64432 6.81092 7.16666 6.16658 7.16666C5.52225 7.16666 4.99992 6.64432 4.99992 5.99999V4.83332H3.83325C3.18892 4.83332 2.66659 5.35566 2.66659 5.99999V9.49999H21.3333V5.99999C21.3333 5.35566 20.8109 4.83332 20.1666 4.83332H18.9999V5.99999C18.9999 6.64432 18.4776 7.16666 17.8333 7.16666C17.1889 7.16666 16.6666 6.64432 16.6666 5.99999Z" fill="#0F0F0F"/>
<path d="M17.8333 17.6667C17.8333 17.0223 18.3556 16.5 18.9999 16.5C19.6442 16.5 20.1666 17.0223 20.1666 17.6667V18.8333H21.3333C21.9776 18.8333 22.4999 19.3557 22.4999 20C22.4999 20.6443 21.9776 21.1667 21.3333 21.1667H20.1666V22.3333C20.1666 22.9777 19.6442 23.5 18.9999 23.5C18.3556 23.5 17.8333 22.9777 17.8333 22.3333V21.1667H16.6666C16.0223 21.1667 15.4999 20.6443 15.4999 20C15.4999 19.3557 16.0223 18.8333 16.6666 18.8333H17.8333V17.6667Z" fill="#0F0F0F"/>
<path fill-rule="evenodd" clip-rule="evenodd" d="M25.9999 20C25.9999 23.866 22.8659 27 18.9999 27C15.1339 27 11.9999 23.866 11.9999 20C11.9999 16.134 15.1339 13 18.9999 13C22.8659 13 25.9999 16.134 25.9999 20ZM14.3122 20C14.3122 22.589 16.4109 24.6877 18.9999 24.6877C21.5889 24.6877 23.6877 22.589 23.6877 20C23.6877 17.411 21.5889 15.3122 18.9999 15.3122C16.4109 15.3122 14.3122 17.411 14.3122 20Z" fill="#0F0F0F"/>
</svg>
