<svg width="28" height="28" viewBox="0 0 28 28" fill="none" xmlns="http://www.w3.org/2000/svg">
<path d="M1.16675 2.33327C1.16675 1.68894 1.68908 1.1666 2.33341 1.1666C2.97775 1.1666 3.50008 1.68894 3.50008 2.33327V23.3333C3.50008 23.9776 4.02241 24.4999 4.66675 24.4999L25.6667 24.4999C26.3111 24.4999 26.8334 25.0223 26.8334 25.6666C26.8334 26.3109 26.3111 26.8333 25.6667 26.8333H3.50008C2.21142 26.8333 1.16675 25.7886 1.16675 24.4999V2.33327Z" fill="#0F0F0F"/>
<path d="M23.25 6.26656C23.4893 5.66831 23.1983 4.98935 22.6 4.75005C22.0018 4.51075 21.3228 4.80173 21.0835 5.39998L17.2929 14.8765C17.1476 15.2399 16.6926 15.3599 16.3869 15.1153L12.9281 12.3483C12.0889 11.677 10.8486 11.9135 10.3154 12.8466L5.98713 20.4211C5.66745 20.9805 5.86181 21.6932 6.42125 22.0129C6.98069 22.3326 7.69335 22.1382 8.01303 21.5788L11.6646 15.1884C11.8424 14.8774 12.2558 14.7986 12.5355 15.0224L16.1573 17.9198C17.0742 18.6533 18.4392 18.2935 18.8753 17.2032L23.25 6.26656Z" fill="#0F0F0F"/>
</svg>
