<svg width="27" height="25" viewBox="0 0 27 25" fill="none" xmlns="http://www.w3.org/2000/svg">
<path fill-rule="evenodd" clip-rule="evenodd" d="M13.4999 24.8577C20.9097 24.8577 26.9166 19.409 26.9166 12.6876C26.9166 5.96634 20.9097 0.517639 13.4999 0.517639C6.0901 0.517639 0.083252 5.96634 0.083252 12.6876C0.083252 19.409 6.0901 24.8577 13.4999 24.8577ZM13.4999 22.6374C7.44194 22.6374 2.53098 18.1827 2.53098 12.6876C2.53098 7.56653 6.79626 3.34906 12.2802 2.79874V12.2294C12.2802 12.8162 12.5372 13.379 12.9947 13.794L20.3459 20.4621C18.4695 21.8234 16.0895 22.6374 13.4999 22.6374ZM22.0708 18.8975L16.861 14.1718C16.7073 14.0324 16.8161 13.794 17.0335 13.794H24.4018C24.1678 15.7124 23.3326 17.4664 22.0708 18.8975ZM24.4018 11.5813H15.3295C14.9927 11.5813 14.7196 11.3336 14.7196 11.0281V2.79874C19.8031 3.30888 23.8394 6.97013 24.4018 11.5813Z" fill="#0F0F0F"/>
</svg>
