<svg width="28" height="28" viewBox="0 0 28 28" fill="none" xmlns="http://www.w3.org/2000/svg">
<rect width="28" height="28" fill="white"/>
<path fill-rule="evenodd" clip-rule="evenodd" d="M4.97864 7.28255C2.57324 5.14442 4.0856 1.16661 7.30391 1.16661H20.6963C23.9146 1.16661 25.427 5.14442 23.0216 7.28255L17.8917 11.8424C17.6426 12.0639 17.5001 12.3812 17.5001 12.7144V24.6C17.5001 26.6788 14.9868 27.7198 13.5169 26.2499L11.1835 23.9166C10.7459 23.479 10.5001 22.8855 10.5001 22.2667V12.7144C10.5001 12.3812 10.3576 12.0639 10.1085 11.8424L4.97864 7.28255ZM7.30391 3.49994C6.23115 3.49994 5.72702 4.82588 6.52882 5.53859L11.6587 10.0985C12.406 10.7627 12.8335 11.7147 12.8335 12.7144V22.2667L15.1668 24.6V12.7144C15.1668 11.7147 15.5943 10.7627 16.3415 10.0985L21.4715 5.53859C22.2732 4.82588 21.7691 3.49994 20.6963 3.49994H7.30391Z" fill="#0F0F0F"/>
</svg>
