<svg width="28" height="28" viewBox="0 0 28 28" fill="none" xmlns="http://www.w3.org/2000/svg">
<path fill-rule="evenodd" clip-rule="evenodd" d="M11.6999 1.30448C11.3136 1.51107 11.1236 1.88578 11.0829 2.30959C11.0654 2.51461 11.0391 2.71817 11.0033 2.9209C10.9274 3.35122 10.7836 3.95932 10.5141 4.64699C9.9766 6.01873 8.94867 7.68747 6.9649 8.92727C4.16926 10.6745 3.13226 14.6004 3.57539 18.1149C4.02781 21.703 6.0769 25.422 10.1311 26.7734C10.5351 26.9081 10.9803 26.8119 11.2927 26.5226C11.675 26.1686 11.6945 25.6995 11.5973 25.226C11.5261 24.8784 11.3751 24.0082 11.3751 22.9687C11.3751 22.6324 11.3906 22.2873 11.4266 21.9413C12.0497 23.3695 12.8943 24.4111 13.7385 25.156C14.9943 26.2641 16.181 26.667 16.5343 26.7711C16.8025 26.8501 17.0873 26.8549 17.3498 26.7498C20.4497 25.5099 22.4014 23.827 23.4916 21.9033C24.5794 19.9836 24.7325 17.9596 24.4893 16.1756C24.2472 14.4009 23.608 12.8157 23.046 11.6917C22.621 10.8417 22.2291 10.2327 22.0491 9.96616C21.8285 9.63948 21.5411 9.3873 21.1317 9.34075C20.8055 9.30366 20.4787 9.40574 20.2316 9.62196L18.4057 11.2197C18.5625 8.68563 17.6711 6.55661 16.5646 4.95218C15.7611 3.7871 14.8444 2.89232 14.1344 2.29079C13.7777 1.98856 13.4684 1.7564 13.2446 1.59744C13.1326 1.51786 13.0415 1.45636 12.9762 1.41332C12.5893 1.1584 12.1253 1.07698 11.6999 1.30448ZM9.05802 23.632C9.04771 23.4201 9.04173 23.1983 9.04173 22.9687C9.04174 21.7405 9.21297 20.1902 9.8911 18.7493C10.1182 18.2667 10.4022 17.7963 10.7557 17.3545C11.0532 16.9827 11.5467 16.8289 12.0026 16.966C12.4586 17.1031 12.7855 17.5035 12.8286 17.9777C13.0925 20.8807 14.2597 22.5041 15.2823 23.4064C15.8048 23.8675 16.3089 24.1565 16.674 24.328C18.0834 24.4999 20.8658 21.804 21.4615 20.7529C22.2331 19.3913 22.3716 17.9153 22.1773 16.4909C21.9505 14.8274 21.2689 13.288 20.7266 12.2894L17.1017 15.4613C16.6872 15.8239 16.0756 15.8474 15.6346 15.5175C15.1936 15.1877 15.0433 14.5944 15.2741 14.0944C16.8096 10.7676 15.9309 8.14318 14.6438 6.27689C14.1329 5.53607 13.5577 4.91924 13.0435 4.44145C12.95 4.76933 12.833 5.12473 12.6866 5.49831C12.4787 6.02881 12.2106 6.59786 11.8655 7.17718C11.0928 8.47442 9.93404 9.82318 8.20153 10.906C6.50718 11.9649 5.5026 14.7474 5.8904 17.823C6.18275 20.1417 7.23622 22.3118 9.05802 23.632Z" fill="#0F0F0F"/>
</svg>
