<svg width="28" height="28" viewBox="0 0 28 28" fill="none" xmlns="http://www.w3.org/2000/svg">
<path fill-rule="evenodd" clip-rule="evenodd" d="M16.0104 1.77374C16.9312 1.31332 18.0081 1.28168 18.9543 1.68723L24.7121 4.15485C25.999 4.70638 26.8334 5.97176 26.8334 7.37186V22.128C26.8334 24.6407 24.2642 26.3348 21.9547 25.345L18.0352 23.6652C17.7198 23.5301 17.3608 23.5406 17.0539 23.6941L11.9898 26.2261C11.0689 26.6865 9.9921 26.7182 9.04581 26.3126L3.28803 23.845C2.00114 23.2935 1.16675 22.0281 1.16675 20.628V5.87186C1.16675 3.35915 3.73593 1.66505 6.04546 2.65485L9.96496 4.33463C10.2804 4.46982 10.6393 4.45927 10.9463 4.30579L16.0104 1.77374ZM18.6667 4.10256V21.412C18.7637 21.4438 18.8597 21.48 18.9543 21.5206L22.8738 23.2003C23.6437 23.5303 24.5001 22.9656 24.5001 22.128V7.37186C24.5001 6.90516 24.2219 6.48336 23.793 6.29952L18.6667 4.10256ZM16.3334 21.4654V4.22097L11.9898 6.39279C11.884 6.44567 11.7762 6.4929 11.6667 6.53445V23.7789L16.0104 21.6071C16.1161 21.5542 16.224 21.507 16.3334 21.4654ZM9.04581 6.4793C9.14047 6.51987 9.23643 6.55606 9.33341 6.58789V23.8973L4.20718 21.7003C3.77821 21.5165 3.50008 21.0947 3.50008 20.628V5.87186C3.50008 5.03429 4.35647 4.46959 5.12632 4.79952L9.04581 6.4793Z" fill="#0F0F0F"/>
</svg>
