<svg width="28" height="28" viewBox="0 0 28 28" fill="none" xmlns="http://www.w3.org/2000/svg">
<rect width="28" height="28" fill="white"/>
<path fill-rule="evenodd" clip-rule="evenodd" d="M6.99997 2.33328C6.99997 1.68895 7.52231 1.16661 8.16664 1.16661C8.81098 1.16661 9.33331 1.68895 9.33331 2.33328V6.00409C11.0171 6.50789 12.2442 8.06894 12.2442 9.91663C12.2442 11.7643 11.0171 13.3254 9.33331 13.8291V25.6666C9.33331 26.311 8.81098 26.8333 8.16664 26.8333C7.52231 26.8333 6.99997 26.311 6.99997 25.6666V13.8325C5.31036 13.3324 4.07764 11.7685 4.07764 9.91663C4.07764 8.06479 5.31036 6.50088 6.99997 6.0007V2.33328ZM8.16097 11.6723C7.19134 11.6723 6.4053 10.8863 6.4053 9.91663C6.4053 8.94699 7.19134 8.16095 8.16097 8.16095C9.1306 8.16095 9.91664 8.94699 9.91664 9.91663C9.91664 10.8863 9.1306 11.6723 8.16097 11.6723Z" fill="#0F0F0F"/>
<path fill-rule="evenodd" clip-rule="evenodd" d="M20.9999 21.9992C22.6896 21.499 23.9223 19.9351 23.9223 18.0833C23.9223 16.2314 22.6896 14.6675 20.9999 14.1674V2.33328C20.9999 1.68895 20.4776 1.16661 19.8332 1.16661C19.1889 1.16661 18.6666 1.68895 18.6666 2.33328V14.1707C16.9828 14.6745 15.7556 16.2356 15.7556 18.0833C15.7556 19.9309 16.9828 21.492 18.6666 21.9958V25.6666C18.6666 26.311 19.1889 26.8333 19.8332 26.8333C20.4776 26.8333 20.9999 26.311 20.9999 25.6666V21.9992ZM19.8389 19.839C18.8693 19.839 18.0832 19.0529 18.0832 18.0833C18.0832 17.1137 18.8693 16.3276 19.8389 16.3276C20.8086 16.3276 21.5945 17.1137 21.5945 18.0833C21.5945 19.0529 20.8086 19.839 19.8389 19.839Z" fill="#0F0F0F"/>
</svg>
