<svg width="24" height="23" viewBox="0 0 24 23" fill="none" xmlns="http://www.w3.org/2000/svg">
<g clip-path="url(#clip0_8_235)">
<mask id="mask0_8_235" style="mask-type:luminance" maskUnits="userSpaceOnUse" x="0" y="0" width="24" height="23">
<path d="M0.5 22.5V0.5H23.3313V22.5H0.5Z" fill="white" stroke="white"/>
</mask>
<g mask="url(#mask0_8_235)">
<path fill-rule="evenodd" clip-rule="evenodd" d="M10.3102 5.48559C15.0008 0.413164 21.7273 0.432846 22.8417 0.462719C23.1088 0.469879 23.323 0.685785 23.3282 0.952937C23.3489 2.03011 23.3774 8.53739 18.1055 13.069C15.5085 15.3026 12.6964 16.1383 11.1028 16.47C10.8324 16.5263 10.5676 16.3527 10.5114 16.0824C10.4551 15.812 10.6286 15.5473 10.899 15.491C12.4012 15.1783 15.0322 14.3932 17.4536 12.3108L17.4537 12.3107C21.8425 8.53817 22.2959 3.2681 22.3286 1.45949C20.4695 1.48324 14.971 1.91804 11.0442 6.16478L11.0436 6.16534C8.87957 8.49854 8.07837 11.041 7.75525 12.4773C7.69465 12.7467 7.42712 12.916 7.15771 12.8554C6.8883 12.7948 6.71903 12.5273 6.77963 12.2579C7.12426 10.7259 7.98228 7.99558 10.3102 5.48559Z" fill="black" stroke="black" stroke-linecap="round" stroke-linejoin="round"/>
<path fill-rule="evenodd" clip-rule="evenodd" d="M9.79852 7.11866C9.26517 6.97568 7.28061 6.50746 5.49483 7.38697L5.49371 7.38752C3.70103 8.26489 2.5359 10.1507 2.45338 12.3133L7.18705 11.8407C7.33316 11.8261 7.47829 11.8765 7.58395 11.9785L11.3477 15.611C11.4587 15.7181 11.514 15.8706 11.4976 16.024L11.0101 20.5721C13.2688 20.5034 15.2368 19.3597 16.1537 17.6308C17.0565 15.923 16.5763 14.025 16.4286 13.5115C16.3523 13.2461 16.5055 12.9691 16.7709 12.8928C17.0363 12.8164 17.3133 12.9696 17.3896 13.235C17.5453 13.7762 18.1377 16.0181 17.0374 18.0988C15.8406 20.3556 13.2344 21.6917 10.4319 21.5673C10.2941 21.5612 10.1648 21.4984 10.0749 21.3937C9.98492 21.289 9.94225 21.1518 9.95696 21.0145L10.4772 16.1606L7.05606 12.8588L2.00502 13.3631C1.86823 13.3767 1.73186 13.3335 1.62796 13.2434C1.52406 13.1534 1.4618 13.0246 1.45583 12.8873C1.33682 10.1516 2.72236 7.63052 5.05412 6.48932C7.19364 5.43618 9.49821 6.00284 10.0575 6.15277C10.3242 6.22428 10.4824 6.49847 10.4109 6.76519C10.3394 7.03192 10.0652 7.19017 9.79852 7.11866Z" fill="black" stroke="black" stroke-linecap="round" stroke-linejoin="round"/>
<path fill-rule="evenodd" clip-rule="evenodd" d="M3.31623 15.9013C3.50481 15.8103 3.73013 15.8464 3.8808 15.9918L7.18497 19.1807C7.24594 19.2224 7.29791 19.2777 7.33602 19.3439C7.42527 19.4989 7.42495 19.6897 7.33519 19.8444C7.17928 20.113 6.97729 20.4061 6.71726 20.6903C5.71355 21.8152 4.39855 22.2715 3.30424 22.4443C2.20801 22.6173 1.28904 22.5134 1.02648 22.4824C0.917847 22.4695 0.816417 22.4214 0.73774 22.3454L0.717503 22.3259C0.638187 22.2492 0.586428 22.1486 0.570282 22.0395C0.53116 21.7751 0.420514 20.8824 0.598249 19.8152C0.77633 18.746 1.25072 17.4662 2.41196 16.4868L2.41804 16.4817L2.41808 16.4818C2.70794 16.2451 3.01395 16.0472 3.31623 15.9013ZM6.25607 19.674L3.45197 16.9677C3.32035 17.0499 3.18634 17.1457 3.0536 17.2539C2.13278 18.0319 1.73776 19.0602 1.58466 19.9795C1.48057 20.6045 1.49144 21.1628 1.51913 21.5244C1.89901 21.5501 2.48846 21.5607 3.14828 21.4565C4.10952 21.3047 5.17603 20.9169 5.97295 20.0225L5.97758 20.0173L5.97762 20.0173C6.08104 19.9044 6.17351 19.7889 6.25607 19.674Z" fill="black" stroke="black" stroke-linecap="round" stroke-linejoin="round"/>
<path fill-rule="evenodd" clip-rule="evenodd" d="M13.647 7.84658C13.647 6.73416 14.5762 5.86237 15.6848 5.86237C16.7934 5.86237 17.7227 6.73414 17.7227 7.84658C17.7227 8.95904 16.7934 9.83081 15.6848 9.83081C14.5762 9.83081 13.647 8.95902 13.647 7.84658ZM15.6848 6.86237C15.0948 6.86237 14.647 7.31959 14.647 7.84658C14.647 8.37359 15.0948 8.83081 15.6848 8.83081C16.2749 8.83081 16.7227 8.37357 16.7227 7.84658C16.7227 7.31961 16.2749 6.86237 15.6848 6.86237Z" fill="black" stroke="black" stroke-linecap="round" stroke-linejoin="round"/>
</g>
</g>
<defs>
<clipPath id="clip0_8_235">
<rect width="24" height="23" fill="white"/>
</clipPath>
</defs>
</svg>
