<svg width="59" height="45" viewBox="0 0 59 45" fill="none" xmlns="http://www.w3.org/2000/svg">
<path d="M27.0417 10.2083C27.0417 15.6391 22.6392 20.0417 17.2084 20.0417C11.7776 20.0417 7.37502 15.6391 7.37502 10.2083C7.37502 4.77753 11.7776 0.375 17.2084 0.375C22.6392 0.375 27.0417 4.77753 27.0417 10.2083ZM12.2355 10.2083C12.2355 12.9547 14.4619 15.1812 17.2084 15.1812C19.9548 15.1812 22.1812 12.9547 22.1812 10.2083C22.1812 7.46192 19.9548 5.23551 17.2084 5.23551C14.4619 5.23551 12.2355 7.46192 12.2355 10.2083Z" fill="#0F0F0F"/>
<path fill-rule="evenodd" clip-rule="evenodd" d="M5.83025 28.0013C8.71164 25.9135 12.5314 24.9583 17.2084 24.9583C21.8853 24.9583 25.7051 25.9135 28.5865 28.0013C31.5129 30.1218 33.1664 33.188 33.9128 36.7778C34.8619 41.3423 30.9032 44.625 27.0417 44.625H7.37502C3.51352 44.625 -0.445235 41.3423 0.503886 36.7778C1.25033 33.188 2.90379 30.1218 5.83025 28.0013ZM8.71509 31.9827C7.00371 33.2227 5.87723 35.0873 5.31759 37.7788C5.22213 38.2378 5.3498 38.6583 5.69913 39.0258C6.07311 39.4192 6.67972 39.7083 7.37502 39.7083H27.0417C27.737 39.7083 28.3436 39.4192 28.7176 39.0258C29.0669 38.6583 29.1946 38.2378 29.0991 37.7788C28.5395 35.0874 27.413 33.2228 25.7016 31.9827C23.9452 30.71 21.2691 29.875 17.2084 29.875C13.1476 29.875 10.4715 30.71 8.71509 31.9827Z" fill="#0F0F0F"/>
<path d="M51.625 10.2083C51.625 15.6391 47.2225 20.0417 41.7917 20.0417C36.3609 20.0417 31.9584 15.6391 31.9584 10.2083C31.9584 4.77753 36.3609 0.375 41.7917 0.375C47.2225 0.375 51.625 4.77753 51.625 10.2083ZM36.8189 10.2083C36.8189 12.9547 39.0453 15.1812 41.7917 15.1812C44.5381 15.1812 46.7645 12.9547 46.7645 10.2083C46.7645 7.46192 44.5381 5.23551 41.7917 5.23551C39.0453 5.23551 36.8189 7.46192 36.8189 10.2083Z" fill="#0F0F0F"/>
<path d="M35.7345 25.6193C34.2561 25.9821 33.74 27.7038 34.5757 28.9762L34.6808 29.1363C35.2999 30.0788 36.4793 30.4626 37.5856 30.244C38.7893 30.0063 40.1817 29.875 41.7917 29.875C45.8525 29.875 48.5285 30.71 50.285 31.9827C51.9964 33.2228 53.1228 35.0874 53.6825 37.7788C53.7779 38.2378 53.6503 38.6583 53.3009 39.0258C52.927 39.4192 52.3203 39.7083 51.6251 39.7083H39.3334C37.9757 39.7083 36.8751 40.809 36.8751 42.1667C36.8751 43.5244 37.9758 44.625 39.3335 44.625H51.6251C55.4865 44.625 59.4453 41.3423 58.4962 36.7778C57.7497 33.188 56.0963 30.1218 53.1698 28.0013C50.2884 25.9135 46.4687 24.9583 41.7917 24.9583C39.5777 24.9583 37.5557 25.1724 35.7345 25.6193Z" fill="#0F0F0F"/>
</svg>
