<svg width="28" height="28" viewBox="0 0 28 28" fill="none" xmlns="http://www.w3.org/2000/svg">
<path d="M18.9527 9.67504C19.4083 9.21943 20.147 9.21943 20.6026 9.67504C21.0582 10.1307 21.0582 10.8693 20.6026 11.325L13.8883 18.038C12.9771 18.949 11.4998 18.949 10.5887 18.0378L8.50839 15.9576C8.05278 15.5019 8.05278 14.7632 8.50839 14.3076C8.964 13.852 9.7027 13.852 10.1583 14.3076L11.4142 15.5636C11.8698 16.0192 12.6085 16.0192 13.0641 15.5636L18.9527 9.67504Z" fill="#0F0F0F"/>
<path fill-rule="evenodd" clip-rule="evenodd" d="M14 1.16895C12.8646 1.16895 12.0192 1.62698 11.3007 2.01629C11.1334 2.10693 10.973 2.19385 10.8173 2.2704C9.91316 2.71517 8.54302 3.2435 5.75798 3.43168C3.92976 3.55521 2.30324 5.04348 2.37614 7.04413C2.49605 10.335 2.8778 13.7018 3.64556 16.539C4.39682 19.3152 5.58634 21.8486 7.51954 23.1374C9.36828 24.3699 10.8889 25.4383 11.9062 26.1675C13.1554 27.063 14.8447 27.063 16.0939 26.1675C17.1112 25.4383 18.6318 24.3699 20.4805 23.1374C22.4137 21.8486 23.6032 19.3152 24.3545 16.539C25.1222 13.7019 25.504 10.335 25.6239 7.04413C25.6968 5.04348 24.0703 3.55521 22.2421 3.43168C19.457 3.2435 18.0869 2.71517 17.1827 2.2704C17.0271 2.19386 16.8667 2.10696 16.6994 2.01633C15.9809 1.62702 15.1354 1.16895 14 1.16895ZM5.91528 5.7597C8.98657 5.55218 10.6553 4.95047 11.8473 4.36413C12.1878 4.19662 12.4511 4.05704 12.6673 3.94243C13.2589 3.62886 13.4977 3.50228 14 3.50228C14.5023 3.50228 14.7411 3.62886 15.3327 3.94243C15.5489 4.05704 15.8122 4.19662 16.1528 4.36413C17.3448 4.95047 19.0135 5.55218 22.0848 5.7597C22.828 5.80992 23.3131 6.3842 23.2921 6.95917C23.1758 10.1508 22.8069 13.3254 22.1022 15.9295C21.3809 18.5947 20.3762 20.4026 19.1862 21.1959C17.3116 22.4457 15.769 23.5295 14.7344 24.2711C14.2979 24.5841 13.7021 24.5841 13.2656 24.2711C12.2311 23.5295 10.6885 22.4457 8.81384 21.1959C7.6238 20.4026 6.6191 18.5947 5.89789 15.9295C5.19318 13.3253 4.82422 10.1507 4.70793 6.95916C4.68698 6.3842 5.17203 5.80992 5.91528 5.7597Z" fill="#0F0F0F"/>
</svg>
