<svg width="28" height="28" viewBox="0 0 28 28" fill="none" xmlns="http://www.w3.org/2000/svg">
<path d="M22.1667 1.16667C22.1667 0.522335 22.6891 0 23.3334 0C23.9777 0 24.5001 0.522335 24.5001 1.16667V1.85012L25.9828 0.367376C26.4384 -0.0882356 27.1771 -0.0882343 27.6327 0.367377C28.0884 0.822989 28.0884 1.56168 27.6327 2.01729L26.15 3.5H26.8334C27.4777 3.5 28.0001 4.02233 28.0001 4.66667C28.0001 5.311 27.4777 5.83333 26.8334 5.83333H23.8167L14.8188 14.8313C14.3632 15.2869 13.6245 15.2869 13.1689 14.8313C12.7132 14.3757 12.7132 13.637 13.1689 13.1813L22.1667 4.18345V1.16667Z" fill="#0F0F0F"/>
<path d="M20.2913 4.42059C20.8064 3.90542 20.7291 3.04587 20.088 2.69976C18.2765 1.72178 16.2031 1.16667 14.0001 1.16667C6.91243 1.16667 1.16675 6.91235 1.16675 14C1.16675 21.0877 6.91243 26.8333 14.0001 26.8333C21.0877 26.8333 26.8334 21.0877 26.8334 14C26.8334 11.8013 26.2805 9.73179 25.3061 7.92285C24.9604 7.28106 24.1003 7.20328 23.5849 7.71874L23.55 7.75364C23.1648 8.13885 23.1039 8.7364 23.3521 9.22129C24.086 10.6547 24.5001 12.279 24.5001 14C24.5001 19.799 19.7991 24.5 14.0001 24.5C8.20109 24.5 3.50008 19.799 3.50008 14C3.50008 8.20101 8.20109 3.5 14.0001 3.5C15.7247 3.5 17.3522 3.91578 18.7878 4.65256C19.2728 4.90151 19.871 4.84084 20.2565 4.45531L20.2913 4.42059Z" fill="#0F0F0F"/>
<path d="M16.7883 7.92352C17.3397 7.37219 17.201 6.44381 16.4573 6.20948C15.6818 5.96511 14.8563 5.83333 14.0001 5.83333C9.48976 5.83333 5.83342 9.48967 5.83342 14C5.83342 18.5103 9.48976 22.1667 14.0001 22.1667C18.5104 22.1667 22.1667 18.5103 22.1667 14C22.1667 13.1485 22.0364 12.3275 21.7947 11.5557C21.5614 10.811 20.6322 10.6715 20.0803 11.2233L19.9727 11.3309C19.6447 11.6589 19.5528 12.1478 19.6639 12.5982C19.7747 13.0472 19.8334 13.5168 19.8334 14C19.8334 17.2217 17.2217 19.8333 14.0001 19.8333C10.7784 19.8333 8.16675 17.2217 8.16675 14C8.16675 10.7783 10.7784 8.16667 14.0001 8.16667C14.4869 8.16667 14.9597 8.22629 15.4117 8.33863C15.8627 8.45071 16.3527 8.35913 16.6813 8.03053L16.7883 7.92352Z" fill="#0F0F0F"/>
<path d="M12.9244 10.6766C13.4021 10.5173 13.6424 11.0694 13.2863 11.4255L12.3465 12.3653C11.4364 13.2755 11.4364 14.7511 12.3465 15.6612C13.2566 16.5714 14.7323 16.5714 15.6424 15.6612L16.5703 14.7333C16.9272 14.3764 17.4793 14.6185 17.3168 15.0963C16.8479 16.4744 15.5325 17.5 14.0001 17.5C12.0671 17.5 10.5001 15.933 10.5001 14C10.5001 12.4595 11.5364 11.1394 12.9244 10.6766Z" fill="#0F0F0F"/>
</svg>
