<svg width="28" height="28" viewBox="0 0 28 28" fill="none" xmlns="http://www.w3.org/2000/svg">
<path fill-rule="evenodd" clip-rule="evenodd" d="M15.6495 1.27124C16.2361 1.53787 16.4955 2.22953 16.2289 2.8161L11.396 13.4485L18.3838 11.7015C18.8182 11.5929 19.2765 11.7425 19.5631 12.0866C19.8498 12.4307 19.9142 12.9084 19.7289 13.3161L13.8955 26.1494C13.6289 26.736 12.9372 26.9954 12.3507 26.7288C11.7641 26.4621 11.5047 25.7705 11.7713 25.1839L16.6042 14.5515L9.61639 16.2985C9.18195 16.4071 8.72367 16.2575 8.43705 15.9134C8.15042 15.5693 8.08603 15.0916 8.27134 14.6839L14.1047 1.85056C14.3713 1.26399 15.063 1.00461 15.6495 1.27124Z" fill="#0F0F0F"/>
</svg>
