<svg width="28" height="28" viewBox="0 0 28 28" fill="none" xmlns="http://www.w3.org/2000/svg">
<path d="M12.8334 2.33329C12.8334 1.68896 13.3558 1.16663 14.0001 1.16663C14.0189 1.16663 14.0376 1.16707 14.0562 1.16795C14.0738 1.16722 14.0916 1.16693 14.1095 1.16708C16.4733 1.18722 18.794 1.86027 20.8104 3.12272C23.1575 4.59225 24.9663 6.78155 25.9667 9.36372C26.9671 11.9459 27.1055 14.7824 26.3611 17.4496C25.6167 20.1169 24.0295 22.4719 21.8366 24.1628C19.6436 25.8538 16.9626 26.7901 14.1937 26.8318C11.4248 26.8736 8.7167 26.0186 6.47373 24.3946C4.23077 22.7706 2.57328 20.4646 1.74878 17.821C1.04047 15.5499 0.979559 13.1343 1.56107 10.8431C1.71957 10.2186 2.39534 9.90208 3.00291 10.1166C3.61047 10.3312 3.92597 10.9982 3.78017 11.6259C3.35938 13.4372 3.42608 15.3353 3.9839 17.1239C4.65798 19.2852 6.01307 21.1705 7.84683 22.4982C9.68059 23.826 11.8946 24.525 14.1584 24.4908C16.4221 24.4566 18.614 23.6912 20.4069 22.3087C22.1998 20.9262 23.4974 19.0009 24.1059 16.8203C24.7145 14.6396 24.6014 12.3206 23.7835 10.2096C22.9656 8.09847 21.4868 6.30858 19.5679 5.10715C18.2271 4.26769 16.7218 3.74699 15.1667 3.57298V5.83329C15.1667 6.47763 14.6444 6.99996 14.0001 6.99996C13.3558 6.99996 12.8334 6.47763 12.8334 5.83329V2.33329Z" fill="#0F0F0F"/>
<path fill-rule="evenodd" clip-rule="evenodd" d="M6.19748 4.57955C5.73475 4.27107 5.11861 4.33208 4.72537 4.72532C4.33213 5.11856 4.27112 5.7347 4.5796 6.19743L10.8589 15.6163C11.09 15.9631 11.4443 16.4511 11.9969 16.7915C12.3997 17.0395 13.0392 17.3398 13.8221 17.3495C14.6507 17.3598 15.5072 17.0423 16.2748 16.2747C17.0423 15.5072 17.3599 14.6506 17.3495 13.8221C17.3398 13.0391 17.0396 12.3996 16.7915 11.9969C16.4512 11.4442 15.9631 11.09 15.6164 10.8588L6.19748 4.57955ZM12.8003 14.322L9.75681 9.75676L14.3221 12.8003C14.6145 12.9953 14.7423 13.119 14.8048 13.2205C14.9291 13.4223 15.0138 13.6442 15.0164 13.8511C15.0184 14.0124 14.9756 14.2741 14.6249 14.6248C14.2742 14.9755 14.0125 15.0184 13.8512 15.0163C13.6443 15.0138 13.4224 14.929 13.2205 14.8047C13.1191 14.7422 12.9953 14.6145 12.8003 14.322Z" fill="#0F0F0F"/>
</svg>
