<svg width="28" height="28" viewBox="0 0 28 28" fill="none" xmlns="http://www.w3.org/2000/svg">
<path fill-rule="evenodd" clip-rule="evenodd" d="M5.68358 1.85274C4.88038 2.23807 5.06668 3.2166 5.59164 3.74156L10.6 8.74994L8.74993 10.6L3.74155 5.59165C3.21656 5.06666 2.2276 4.89961 1.84816 5.69322C1.1498 7.15382 0.897479 8.79805 1.1381 10.4168C1.43625 12.4224 2.46985 14.2454 4.03782 15.5311C5.60578 16.8168 7.59597 17.4731 9.62115 17.3726C10.3722 17.3353 11.108 17.1948 11.8098 16.9598L20.8584 26.0083C22.2252 27.3752 24.4413 27.3752 25.8081 26.0083L26.0083 25.8081C27.3751 24.4413 27.3751 22.2252 26.0083 20.8584L16.9598 11.8099C17.196 11.1047 17.3367 10.3651 17.3731 9.61035C17.4711 7.58504 16.8121 5.59572 15.5243 4.02945C14.2366 2.46318 12.4122 1.43197 10.4062 1.13647C8.78716 0.897975 7.14327 1.15246 5.68358 1.85274ZM14.1101 12.2601C14.6248 11.4327 14.9252 10.4818 14.9729 9.4943C15.042 8.06493 14.5769 6.66098 13.6681 5.55558C12.7593 4.45019 11.4717 3.72241 10.056 3.51386C9.58078 3.44386 9.10255 3.43404 8.6319 3.48199L12.2499 7.10002C13.1612 8.01125 13.1612 9.48863 12.2499 10.3999L10.3998 12.2499C9.48862 13.1612 8.01124 13.1612 7.10001 12.2499L3.48204 8.63197C3.43385 9.10507 3.44404 9.58582 3.51503 10.0634C3.72545 11.4789 4.45492 12.7655 5.56151 13.6728C6.6681 14.5802 8.07267 15.0435 9.50194 14.9725C10.4879 14.9235 11.4369 14.6227 12.2628 14.1085L13.9936 15.8393L13.9911 15.8412L22.5083 24.3584C22.9639 24.814 23.7026 24.814 24.1582 24.3584L24.3584 24.1582C24.814 23.7026 24.814 22.9639 24.3584 22.5083L14.1101 12.2601Z" fill="#0F0F0F"/>
</svg>
