<svg width="58" height="58" viewBox="0 0 58 58" fill="none" xmlns="http://www.w3.org/2000/svg">
<path fill-rule="evenodd" clip-rule="evenodd" d="M14.4999 4.83329C14.4999 3.4986 15.5819 2.41663 16.9166 2.41663C18.2513 2.41663 19.3333 3.4986 19.3333 4.83329V7.24996H38.6666V4.83329C38.6666 3.4986 39.7486 2.41663 41.0833 2.41663C42.4179 2.41663 43.4999 3.4986 43.4999 4.83329V7.24996H45.9166C49.9207 7.24996 53.1666 10.4959 53.1666 14.5V48.3333C53.1666 52.3374 49.9207 55.5833 45.9166 55.5833H12.0833C8.07919 55.5833 4.83325 52.3374 4.83325 48.3333V14.5C4.83325 10.4959 8.07919 7.24996 12.0833 7.24996H14.4999V4.83329ZM38.6666 12.0833V14.5C38.6666 15.8346 39.7486 16.9166 41.0833 16.9166C42.4179 16.9166 43.4999 15.8346 43.4999 14.5V12.0833H45.9166C47.2513 12.0833 48.3333 13.1653 48.3333 14.5V21.75H9.66659V14.5C9.66659 13.1653 10.7486 12.0833 12.0833 12.0833H14.4999V14.5C14.4999 15.8346 15.5819 16.9166 16.9166 16.9166C18.2513 16.9166 19.3333 15.8346 19.3333 14.5V12.0833H38.6666ZM9.66659 26.5833V48.3333C9.66659 49.668 10.7486 50.75 12.0833 50.75H45.9166C47.2513 50.75 48.3333 49.668 48.3333 48.3333V26.5833H9.66659Z" fill="#8852FE"/>
</svg>
