<svg width="58" height="58" viewBox="0 0 58 58" fill="none" xmlns="http://www.w3.org/2000/svg">
<path d="M4.83341 2.41663C3.49873 2.41663 2.41675 3.49861 2.41675 4.83329V50.75C2.41675 53.4193 4.5807 55.5833 7.25008 55.5833H53.1667C54.5014 55.5833 55.5834 54.5013 55.5834 53.1666C55.5834 51.8319 54.5014 50.75 53.1667 50.75L9.66675 50.75C8.33206 50.75 7.25008 49.668 7.25008 48.3333V4.83329C7.25008 3.4986 6.1681 2.41663 4.83341 2.41663Z" fill="#8852FE"/>
<path d="M14.5001 33.8333C14.5001 32.4986 15.5821 31.4166 16.9167 31.4166C18.2514 31.4166 19.3334 32.4986 19.3334 33.8333V41.0833C19.3334 42.418 18.2514 43.5 16.9167 43.5C15.5821 43.5 14.5001 42.418 14.5001 41.0833V33.8333Z" fill="#8852FE"/>
<path d="M26.5834 24.1666C25.2487 24.1666 24.1667 25.2486 24.1667 26.5833V41.0833C24.1667 42.418 25.2487 43.5 26.5834 43.5C27.9181 43.5 29.0001 42.418 29.0001 41.0833V26.5833C29.0001 25.2486 27.9181 24.1666 26.5834 24.1666Z" fill="#8852FE"/>
<path d="M33.8334 19.3333C33.8334 17.9986 34.9154 16.9166 36.2501 16.9166C37.5848 16.9166 38.6667 17.9986 38.6667 19.3333V41.0833C38.6667 42.418 37.5848 43.5 36.2501 43.5C34.9154 43.5 33.8334 42.418 33.8334 41.0833V19.3333Z" fill="#8852FE"/>
<path d="M45.9167 9.66663C44.5821 9.66663 43.5001 10.7486 43.5001 12.0833V41.0833C43.5001 42.418 44.5821 43.5 45.9167 43.5C47.2514 43.5 48.3334 42.418 48.3334 41.0833V12.0833C48.3334 10.7486 47.2514 9.66663 45.9167 9.66663Z" fill="#8852FE"/>
</svg>
