<svg width="58" height="58" viewBox="0 0 58 58" fill="none" xmlns="http://www.w3.org/2000/svg">
<path d="M14.4501 4.34453C14.1751 3.05382 12.8847 2.19606 11.5871 2.46835C10.2809 2.74244 9.44416 4.02356 9.71826 5.3298C9.98739 6.6052 10.3369 7.86654 10.7059 9.11587C11.3668 11.3535 12.3839 14.3707 13.8047 17.4432C15.2172 20.498 17.079 23.7187 19.4719 26.2817C21.8709 28.8512 24.9503 30.9089 28.7566 31.2549C30.9874 31.4577 33.0366 32.6863 34.9454 34.7516C35.377 35.2186 35.7933 35.7203 36.1944 36.25H31.4168C30.0821 36.25 29.0001 37.332 29.0001 38.6667C29.0001 40.0014 30.0821 41.0833 31.4168 41.0833H39.1372C39.3593 41.5271 39.5738 41.9757 39.7806 42.4268C40.3038 43.5677 40.7939 44.7332 41.2453 45.9167H29.0001C27.6654 45.9167 26.5834 46.9986 26.5834 48.3333C26.5834 49.668 27.6654 50.75 29.0001 50.75H42.8372C43.105 51.7159 43.3439 52.6876 43.5513 53.6617C43.825 54.9676 45.1055 55.8055 46.4116 55.5323C47.718 55.259 48.5555 53.9784 48.2822 52.6719C47.3928 48.4684 45.9615 44.3101 44.1741 40.4121C42.7566 37.3209 40.8902 34.0628 38.4949 31.4711C37.6608 30.5686 36.7441 29.7278 35.7426 29.0003C36.7441 28.2727 37.6608 27.4319 38.4949 26.5294C40.8902 23.9378 42.7565 20.6797 44.174 17.5885C45.9603 13.6931 47.4002 9.53182 48.2822 5.32861C48.5555 4.0222 47.718 2.74158 46.4116 2.46827C45.1137 2.19672 43.8236 3.05526 43.5497 4.3465C42.7197 8.19511 41.419 12.0008 39.7806 15.5738C38.4732 18.425 36.8594 21.1779 34.9454 23.2489C33.5046 24.8078 31.4386 26.6455 29.1942 26.4414C26.9589 26.2382 24.9059 25.0194 23.0048 22.9832C22.6425 22.5951 22.291 22.1827 21.9504 21.75H26.5834C27.9181 21.75 29.0001 20.668 29.0001 19.3333C29.0001 17.9986 27.9181 16.9167 26.5834 16.9167H18.9217C18.6685 16.4213 18.4252 15.9195 18.1917 15.4146C17.6704 14.2873 17.2064 13.1621 16.7976 12.0833H29.0001C30.3348 12.0833 31.4168 11.0014 31.4168 9.66667C31.4168 8.33198 30.3348 7.25 29.0001 7.25H15.1962C14.9191 6.28939 14.6615 5.32142 14.4501 4.34453Z" fill="#8852FE"/>
<path d="M9.71828 52.6706C9.44418 53.9768 10.2809 55.2579 11.5871 55.532C12.8934 55.8061 14.1754 54.9399 14.4523 53.6458C14.8794 51.6921 15.4542 49.7652 16.0962 47.8728C17.2448 44.4869 18.9716 40.3721 21.3202 37.0907C22.097 36.0054 21.8468 34.4958 20.7615 33.719C19.6761 32.9422 18.1666 33.1923 17.3898 34.2777C14.6408 38.1186 12.7318 42.7452 11.5191 46.32C10.8138 48.399 10.173 50.5203 9.71828 52.6706Z" fill="#8852FE"/>
</svg>
