<svg width="58" height="58" viewBox="0 0 58 58" fill="none" xmlns="http://www.w3.org/2000/svg">
<path fill-rule="evenodd" clip-rule="evenodd" d="M24.5308 5.71521C26.174 1.72448 31.8261 1.7245 33.4693 5.71521L39.1152 19.4267L51.7783 20.1715C56.2195 20.4328 57.9788 26.0484 54.4806 28.7971L43.939 37.0797L48.1406 48.9844C49.6982 53.3975 44.7011 57.2272 40.8446 54.5759L29.0001 46.4327L17.1555 54.5759C13.299 57.2272 8.3019 53.3975 9.85949 48.9844L14.0611 37.0798L3.51954 28.7971C0.0212964 26.0485 1.78064 20.4328 6.22186 20.1715L18.8849 19.4267L24.5308 5.71521ZM29.0001 7.5555L22.1986 24.0734L6.50568 24.9965L19.7723 35.4203L14.4173 50.593L29.0001 40.5673L43.5828 50.593L38.2278 35.4203L51.4944 24.9965L35.8016 24.0734L29.0001 7.5555Z" fill="#8852FE"/>
</svg>
