<svg width="58" height="58" viewBox="0 0 58 58" fill="none" xmlns="http://www.w3.org/2000/svg">
<path fill-rule="evenodd" clip-rule="evenodd" d="M9.66675 14.5C8.33206 14.5 7.25008 15.5819 7.25008 16.9166V41.0833C7.25008 42.418 8.33206 43.5 9.66675 43.5H33.8334C35.1681 43.5 36.2501 42.418 36.2501 41.0833V38.5077C36.2501 35.6125 39.4769 33.8856 41.8859 35.4916L50.7501 41.401V16.5989L41.8859 22.5083C39.4769 24.1144 36.2501 22.3874 36.2501 19.4922V16.9166C36.2501 15.5819 35.1681 14.5 33.8334 14.5H9.66675ZM2.41675 16.9166C2.41675 12.9126 5.66268 9.66663 9.66675 9.66663H33.8334C37.8375 9.66663 41.0834 12.9126 41.0834 16.9166V17.2344L48.069 12.5773C51.281 10.436 55.5834 12.7385 55.5834 16.5989V41.401C55.5834 45.2614 51.2811 47.564 48.069 45.4226L41.0834 40.7655V41.0833C41.0834 45.0874 37.8375 48.3333 33.8334 48.3333H9.66675C5.66268 48.3333 2.41675 45.0874 2.41675 41.0833V16.9166Z" fill="#8852FE"/>
</svg>
