<svg width="550" height="73" viewBox="0 0 550 73" fill="none" xmlns="http://www.w3.org/2000/svg">
<path d="M58.16 6.576C58.064 7.184 57.872 7.744 57.584 8.256C57.328 8.768 57.024 9.296 56.672 9.84L19.712 61.104H50.672L49.328 72H0.0319999L0.512 67.824C0.608 67.216 0.8 66.672 1.088 66.192C1.344 65.68 1.648 65.152 2 64.608L39.056 13.248H9.536L10.88 2.352H58.784L58.16 6.576ZM81.5375 30.912C80.1295 30.912 78.8015 31.216 77.5535 31.824C76.3055 32.4 75.1695 33.232 74.1455 34.32C73.1535 35.376 72.2735 36.656 71.5055 38.16C70.7375 39.664 70.1135 41.344 69.6335 43.2C73.1855 42.688 76.0495 42.144 78.2255 41.568C80.4335 40.96 82.1295 40.32 83.3135 39.648C84.5295 38.944 85.3295 38.192 85.7135 37.392C86.1295 36.592 86.3375 35.728 86.3375 34.8C86.3375 34.352 86.2415 33.904 86.0495 33.456C85.8575 32.976 85.5695 32.56 85.1855 32.208C84.8015 31.824 84.3055 31.52 83.6975 31.296C83.0895 31.04 82.3695 30.912 81.5375 30.912ZM68.5775 51.696C68.5775 59.024 71.6655 62.688 77.8415 62.688C79.8895 62.688 81.5535 62.432 82.8335 61.92C84.1455 61.376 85.2655 60.8 86.1935 60.192C87.1215 59.552 87.9695 58.976 88.7375 58.464C89.5375 57.92 90.4495 57.648 91.4735 57.648C91.9215 57.648 92.3375 57.76 92.7215 57.984C93.1375 58.176 93.5055 58.448 93.8255 58.8L97.1855 62.832C95.4575 64.56 93.7775 66.048 92.1455 67.296C90.5135 68.512 88.8175 69.536 87.0575 70.368C85.2975 71.168 83.4575 71.76 81.5375 72.144C79.6175 72.528 77.5055 72.72 75.2015 72.72C72.2895 72.72 69.6335 72.224 67.2335 71.232C64.8335 70.24 62.7695 68.848 61.0415 67.056C59.3455 65.232 58.0175 63.056 57.0575 60.528C56.1295 57.968 55.6655 55.12 55.6655 51.984C55.6655 49.36 55.9535 46.8 56.5295 44.304C57.1055 41.808 57.9375 39.44 59.0255 37.2C60.1135 34.96 61.4255 32.912 62.9615 31.056C64.5295 29.168 66.3055 27.552 68.2895 26.208C70.2735 24.832 72.4335 23.76 74.7695 22.992C77.1375 22.224 79.6495 21.84 82.3055 21.84C84.8975 21.84 87.1855 22.224 89.1695 22.992C91.1855 23.728 92.8655 24.704 94.2095 25.92C95.5535 27.104 96.5615 28.432 97.2335 29.904C97.9375 31.376 98.2895 32.848 98.2895 34.32C98.2895 36.528 97.8415 38.56 96.9455 40.416C96.0495 42.272 94.4815 43.936 92.2415 45.408C90.0015 46.848 86.9615 48.096 83.1215 49.152C79.2815 50.176 74.4335 50.976 68.5775 51.552V51.696ZM119.528 31.92C121.992 28.464 124.68 25.904 127.592 24.24C130.536 22.576 133.592 21.744 136.76 21.744C138.808 21.744 140.664 22.16 142.328 22.992C143.992 23.824 145.368 25.04 146.456 26.64C147.576 28.24 148.36 30.208 148.808 32.544C149.256 34.88 149.288 37.552 148.904 40.56L145.16 72H131.96L135.656 40.56C136.04 37.584 135.896 35.488 135.224 34.272C134.552 33.024 133.368 32.4 131.672 32.4C130.456 32.4 129.208 32.768 127.928 33.504C126.648 34.208 125.416 35.216 124.232 36.528C123.048 37.84 121.96 39.424 120.968 41.28C119.976 43.136 119.176 45.2 118.568 47.472L115.832 72H102.584L108.536 22.464H115.304C116.68 22.464 117.752 22.8 118.52 23.472C119.288 24.144 119.672 25.216 119.672 26.688L119.528 31.92ZM176.949 13.248L174.501 33.12H197.205L195.717 44.016H173.157L169.701 72H155.733L164.325 2.352H205.317L203.925 13.248H176.949ZM203.976 72L212.664 0.431997H225.72L216.984 72H203.976ZM248.101 62.784C249.957 62.784 251.621 62.24 253.093 61.152C254.565 60.064 255.813 58.608 256.837 56.784C257.861 54.928 258.645 52.784 259.189 50.352C259.765 47.92 260.053 45.344 260.053 42.624C260.053 38.784 259.461 36.016 258.277 34.32C257.093 32.592 255.253 31.728 252.757 31.728C250.933 31.728 249.269 32.272 247.765 33.36C246.293 34.416 245.045 35.856 244.021 37.68C242.997 39.504 242.197 41.648 241.621 44.112C241.077 46.544 240.805 49.12 240.805 51.84C240.805 55.616 241.397 58.384 242.581 60.144C243.765 61.904 245.605 62.784 248.101 62.784ZM246.949 72.72C244.197 72.72 241.637 72.272 239.269 71.376C236.901 70.448 234.853 69.104 233.125 67.344C231.397 65.584 230.037 63.408 229.045 60.816C228.085 58.224 227.605 55.264 227.605 51.936C227.605 47.616 228.309 43.616 229.717 39.936C231.125 36.224 233.029 33.024 235.429 30.336C237.829 27.648 240.629 25.552 243.829 24.048C247.029 22.512 250.405 21.744 253.957 21.744C256.709 21.744 259.253 22.208 261.589 23.136C263.957 24.032 266.005 25.376 267.733 27.168C269.461 28.928 270.821 31.104 271.813 33.696C272.805 36.288 273.301 39.248 273.301 42.576C273.301 46.864 272.597 50.848 271.189 54.528C269.781 58.208 267.861 61.392 265.429 64.08C263.029 66.768 260.229 68.88 257.029 70.416C253.861 71.952 250.501 72.72 246.949 72.72ZM348.669 22.512L328.365 72H318.093C317.549 72 317.117 71.824 316.797 71.472C316.477 71.12 316.237 70.528 316.077 69.696L311.853 42.912C311.661 41.632 311.517 40.336 311.421 39.024C311.197 39.696 310.957 40.368 310.701 41.04C310.445 41.68 310.189 42.336 309.933 43.008L299.229 69.696C298.589 71.232 297.645 72 296.397 72H286.509L278.253 22.512H288.381C289.245 22.512 289.949 22.736 290.493 23.184C291.069 23.632 291.437 24.208 291.597 24.912L293.805 49.392C293.997 52.432 294.141 55.36 294.237 58.176C294.781 56.736 295.325 55.296 295.869 53.856C296.413 52.416 297.005 50.928 297.645 49.392L307.293 24.816C307.549 24.144 307.997 23.584 308.637 23.136C309.309 22.688 310.045 22.464 310.845 22.464H316.509C317.437 22.464 318.173 22.688 318.717 23.136C319.293 23.584 319.613 24.144 319.677 24.816L323.229 49.392C323.453 50.896 323.645 52.368 323.805 53.808C323.997 55.248 324.173 56.688 324.333 58.128C324.749 56.688 325.181 55.264 325.629 53.856C326.077 52.416 326.573 50.928 327.117 49.392L335.469 24.912C335.725 24.208 336.173 23.632 336.813 23.184C337.453 22.736 338.173 22.512 338.973 22.512H348.669Z" fill="url(#paint0_linear_39_9)"/>
<path d="M395.176 37.248C397.544 37.248 399.56 36.896 401.224 36.192C402.92 35.488 404.296 34.512 405.352 33.264C406.408 31.984 407.176 30.48 407.656 28.752C408.168 26.992 408.424 25.056 408.424 22.944C408.424 21.472 408.216 20.128 407.8 18.912C407.384 17.664 406.744 16.592 405.88 15.696C405.048 14.8 403.976 14.112 402.664 13.632C401.384 13.152 399.864 12.912 398.104 12.912H390.04L387.016 37.248H395.176ZM399.448 2.352C403.48 2.352 406.936 2.848 409.816 3.84C412.696 4.8 415.064 6.144 416.92 7.872C418.808 9.6 420.184 11.648 421.048 14.016C421.944 16.384 422.392 18.96 422.392 21.744C422.392 25.52 421.8 29.008 420.616 32.208C419.464 35.376 417.704 38.128 415.336 40.464C413 42.768 410.04 44.576 406.456 45.888C402.872 47.2 398.664 47.856 393.832 47.856H385.72L382.744 72H368.92L377.416 2.352H399.448ZM450.268 35.472C452.668 35.472 454.716 35.12 456.412 34.416C458.108 33.712 459.5 32.752 460.588 31.536C461.676 30.32 462.476 28.896 462.988 27.264C463.5 25.632 463.756 23.904 463.756 22.08C463.756 19.232 462.876 16.992 461.116 15.36C459.388 13.728 456.7 12.912 453.052 12.912H446.572L443.788 35.472H450.268ZM454.348 2.352C458.476 2.352 461.996 2.8 464.908 3.696C467.852 4.56 470.252 5.776 472.108 7.34399C473.996 8.88 475.372 10.736 476.236 12.912C477.132 15.056 477.58 17.392 477.58 19.92C477.58 22.544 477.212 25.024 476.476 27.36C475.772 29.696 474.732 31.824 473.356 33.744C471.98 35.664 470.3 37.36 468.316 38.832C466.364 40.304 464.124 41.488 461.596 42.384C462.428 42.864 463.18 43.456 463.852 44.16C464.556 44.864 465.164 45.712 465.676 46.704L477.052 72H464.524C462.124 72 460.556 71.104 459.82 69.312L450.844 47.616C450.46 46.784 449.98 46.176 449.404 45.792C448.828 45.408 447.964 45.216 446.812 45.216H442.588L439.276 72H425.452L433.948 2.352H454.348ZM549.791 32.592C549.791 36.4 549.359 40.048 548.495 43.536C547.631 46.992 546.399 50.208 544.799 53.184C543.231 56.16 541.311 58.848 539.039 61.248C536.767 63.648 534.223 65.712 531.407 67.44C528.623 69.136 525.583 70.448 522.287 71.376C519.023 72.304 515.583 72.768 511.967 72.768C507.455 72.768 503.407 71.984 499.823 70.416C496.239 68.816 493.199 66.64 490.703 63.888C488.207 61.104 486.287 57.824 484.943 54.048C483.599 50.272 482.927 46.192 482.927 41.808C482.927 38 483.359 34.368 484.223 30.912C485.087 27.424 486.303 24.192 487.871 21.216C489.471 18.24 491.407 15.552 493.679 13.152C495.951 10.72 498.479 8.656 501.263 6.96C504.079 5.232 507.119 3.904 510.383 2.976C513.679 2.04799 517.135 1.58399 520.751 1.58399C525.263 1.58399 529.311 2.384 532.895 3.984C536.479 5.584 539.519 7.776 542.015 10.56C544.511 13.344 546.431 16.624 547.775 20.4C549.119 24.176 549.791 28.24 549.791 32.592ZM535.535 32.928C535.535 29.92 535.167 27.184 534.431 24.72C533.695 22.224 532.607 20.112 531.167 18.384C529.759 16.624 528.031 15.264 525.983 14.304C523.967 13.344 521.663 12.864 519.071 12.864C515.711 12.864 512.671 13.552 509.951 14.928C507.263 16.304 504.959 18.24 503.039 20.736C501.151 23.232 499.695 26.24 498.671 29.76C497.647 33.28 497.135 37.184 497.135 41.472C497.135 44.512 497.503 47.264 498.239 49.728C498.975 52.16 500.031 54.256 501.407 56.016C502.815 57.776 504.527 59.136 506.543 60.096C508.591 61.024 510.911 61.488 513.503 61.488C516.863 61.488 519.903 60.816 522.623 59.472C525.343 58.096 527.647 56.16 529.535 53.664C531.455 51.168 532.927 48.176 533.951 44.688C535.007 41.168 535.535 37.248 535.535 32.928Z" fill="#FF4466"/>
<defs>
<linearGradient id="paint0_linear_39_9" x1="9.3766" y1="18.5135" x2="215.92" y2="17.7206" gradientUnits="userSpaceOnUse">
<stop offset="0.354891" stop-color="#8852FE"/>
<stop offset="1" stop-color="#09C6F9"/>
</linearGradient>
</defs>
</svg>
